<svg xmlns="http://www.w3.org/2000/svg" viewBox="0 0 1000 1000" width="1000" height="1000"><circle cx="500.0" cy="500.0" r="500.0" fill="#F2C14E"/><circle cx="500.0" cy="500.0" r="456.0" fill="none" stroke="#1F2A2B" stroke-width="6"/><path d="M209.7560000000001 290.528Q205.4000000000001 290.528 202.1220000000001 288.57000000000005Q198.8440000000001 286.612 197.0400000000001 283.07000000000005Q195.2360000000001 279.528 195.2360000000001 274.82Q195.2360000000001 270.068 197.1060000000001 266.438Q198.9760000000001 262.808 202.4520000000001 260.74Q205.9280000000001 258.672 210.7240000000001 258.672Q216.1800000000001 258.672 219.76600000000008 261.26800000000003Q223.3520000000001 263.864 224.4080000000001 268.484H217.7640000000001Q217.1040000000001 266.46 215.32200000000012 265.294Q213.5400000000001 264.128 210.6800000000001 264.128Q207.6880000000001 264.128 205.5760000000001 265.448Q203.4640000000001 266.76800000000003 202.3860000000001 269.144Q201.3080000000001 271.52 201.3080000000001 274.82Q201.3080000000001 278.164 202.4080000000001 280.496Q203.5080000000001 282.828 205.5320000000001 284.038Q207.5560000000001 285.248 210.3720000000001 285.248Q214.4200000000001 285.248 216.4880000000001 283.07Q218.5560000000001 280.892 218.9520000000001 277.416H211.3840000000001V272.972H224.9360000000001V290.0H219.4800000000001L218.9960000000001 286.084Q218.0280000000001 287.536 216.75200000000012 288.526Q215.4760000000001 289.516 213.7600000000001 290.02200000000005Q212.0440000000001 290.528 209.7560000000001 290.528ZM248.3600000000001 290.528Q244.9720000000001 290.528 242.2000000000001 289.164Q239.42800000000008 287.8 237.80000000000007 285.072Q236.17200000000008 282.344 236.17200000000008 278.12V259.2H242.11200000000008V278.164Q242.11200000000008 280.452 242.86000000000007 282.014Q243.6080000000001 283.576 245.0600000000001 284.324Q246.51200000000009 285.072 248.4480000000001 285.072Q250.4720000000001 285.072 251.9020000000001 284.324Q253.33200000000008 283.576 254.1020000000001 282.014Q254.8720000000001 280.452 254.8720000000001 278.164V259.2H260.81200000000007V278.12Q260.81200000000007 282.344 259.11800000000005 285.072Q257.4240000000001 287.8 254.6080000000001 289.164Q251.7920000000001 290.528 248.3600000000001 290.528ZM244.4000000000001 256.252Q243.25600000000009 256.252 242.4420000000001 255.438Q241.6280000000001 254.624 241.6280000000001 253.436Q241.6280000000001 252.248 242.4420000000001 251.434Q243.25600000000009 250.62 244.4000000000001 250.62Q245.6320000000001 250.62 246.44600000000008 251.434Q247.2600000000001 252.248 247.2600000000001 253.436Q247.2600000000001 254.624 246.44600000000008 255.438Q245.6320000000001 256.252 244.4000000000001 256.252ZM252.4960000000001 256.252Q251.3080000000001 256.252 250.49400000000009 255.438Q249.6800000000001 254.624 249.6800000000001 253.436Q249.6800000000001 252.248 250.49400000000009 251.434Q251.3080000000001 250.62 252.4960000000001 250.62Q253.6840000000001 250.62 254.4980000000001 251.434Q255.3120000000001 252.248 255.3120000000001 253.436Q255.3120000000001 254.624 254.4980000000001 255.438Q253.6840000000001 256.252 252.4960000000001 256.252ZM279.7040000000001 290.0V263.996H270.7280000000001V259.2H294.6200000000001V263.996H285.6000000000001V290.0ZM304.8000000000001 290.0V259.2H325.0840000000001V263.996H310.7400000000001V272.048H323.7640000000001V276.668H310.7400000000001V285.204H325.0840000000001V290.0ZM336.4520000000001 290.0V259.2H347.98000000000013Q351.6760000000001 259.2 354.1180000000001 260.476Q356.5600000000001 261.752 357.7480000000001 263.88599999999997Q358.9360000000001 266.02 358.9360000000001 268.616Q358.9360000000001 271.08 357.7700000000001 273.214Q356.6040000000001 275.348 354.1620000000001 276.646Q351.7200000000001 277.944 347.8920000000001 277.944H342.3920000000001V290.0ZM352.4240000000001 290.0 346.08800000000014 276.448H352.5120000000001L359.2000000000001 290.0ZM342.3920000000001 273.632H347.6280000000001Q350.3120000000001 273.632 351.5880000000001 272.312Q352.8640000000001 270.992 352.8640000000001 268.836Q352.8640000000001 266.68 351.6100000000001 265.42600000000004Q350.3560000000001 264.172 347.5840000000001 264.172H342.3920000000001ZM380.77600000000007 290.528Q377.4320000000001 290.528 374.8140000000001 289.384Q372.1960000000001 288.24 370.6780000000001 286.03999999999996Q369.1600000000001 283.84 369.07200000000006 280.716H375.4080000000001Q375.45200000000006 282.08 376.09000000000003 283.17999999999995Q376.72800000000007 284.28 377.91600000000005 284.918Q379.1040000000001 285.556 380.7320000000001 285.556Q382.1400000000001 285.556 383.1740000000001 285.094Q384.2080000000001 284.632 384.7800000000001 283.796Q385.3520000000001 282.96 385.3520000000001 281.816Q385.3520000000001 280.496 384.7360000000001 279.616Q384.12000000000006 278.736 382.9760000000001 278.12Q381.8320000000001 277.504 380.35800000000006 276.976Q378.88400000000007 276.448 377.30000000000007 275.964Q373.6040000000001 274.732 371.69000000000005 272.752Q369.77600000000007 270.772 369.77600000000007 267.516Q369.77600000000007 264.744 371.11800000000005 262.764Q372.4600000000001 260.784 374.8360000000001 259.728Q377.2120000000001 258.672 380.2480000000001 258.672Q383.37200000000007 258.672 385.7260000000001 259.75Q388.0800000000001 260.828 389.4660000000001 262.852Q390.8520000000001 264.876 390.8960000000001 267.604H384.5160000000001Q384.5160000000001 266.592 383.96600000000007 265.69Q383.41600000000005 264.788 382.4480000000001 264.238Q381.4800000000001 263.688 380.1600000000001 263.688Q379.0160000000001 263.644 378.07000000000005 264.03999999999996Q377.1240000000001 264.436 376.57400000000007 265.206Q376.02400000000006 265.976 376.02400000000006 267.12Q376.02400000000006 268.22 376.57400000000007 268.968Q377.1240000000001 269.716 378.0920000000001 270.266Q379.06000000000006 270.81600000000003 380.35800000000006 271.278Q381.65600000000006 271.74 383.1960000000001 272.224Q385.5280000000001 273.016 387.4420000000001 274.09400000000005Q389.3560000000001 275.172 390.5000000000001 276.88800000000003Q391.64400000000006 278.604 391.64400000000006 281.42Q391.64400000000006 283.84 390.3900000000001 285.908Q389.1360000000001 287.976 386.7160000000001 289.252Q384.2960000000001 290.528 380.77600000000007 290.528ZM402.7480000000001 290.0V259.2H408.6880000000001V285.38H422.1960000000001V290.0ZM444.82800000000003 290.528Q440.29600000000005 290.528 436.8860000000001 288.504Q433.47600000000006 286.48 431.5400000000001 282.894Q429.60400000000004 279.308 429.60400000000004 274.6Q429.60400000000004 269.892 431.5400000000001 266.30600000000004Q433.47600000000006 262.72 436.8860000000001 260.696Q440.29600000000005 258.672 444.82800000000003 258.672Q449.36 258.672 452.79200000000003 260.696Q456.22400000000005 262.72 458.13800000000003 266.30600000000004Q460.052 269.892 460.052 274.6Q460.052 279.308 458.13800000000003 282.894Q456.22400000000005 286.48 452.79200000000003 288.504Q449.36 290.528 444.82800000000003 290.528ZM444.82800000000003 285.204Q447.64400000000006 285.204 449.71200000000005 283.906Q451.78000000000003 282.608 452.90200000000004 280.23199999999997Q454.02400000000006 277.856 454.02400000000006 274.6Q454.02400000000006 271.3 452.90200000000004 268.946Q451.78000000000003 266.592 449.71200000000005 265.31600000000003Q447.64400000000006 264.04 444.82800000000003 264.04Q442.05600000000004 264.04 439.98800000000006 265.31600000000003Q437.92 266.592 436.798 268.946Q435.67600000000004 271.3 435.67600000000004 274.6Q435.67600000000004 277.856 436.798 280.23199999999997Q437.92 282.608 439.98800000000006 283.906Q442.05600000000004 285.204 444.82800000000003 285.204ZM490.47200000000004 290.0V259.2H496.41200000000003V290.0ZM471.06800000000004 290.0V259.2H477.00800000000004V290.0ZM476.21600000000007 276.668V271.872H491.48400000000004V276.668ZM524.8679999999999 290.0V259.2H545.152V263.996H530.808V272.048H543.832V276.668H530.808V285.204H545.152V290.0ZM556.5199999999999 290.0V259.2H563.6039999999999L573.0199999999999 278.384L582.348 259.2H589.4319999999999V290.0H583.492V269.276L575.352 285.688H570.6439999999999L562.4599999999999 269.32V290.0ZM601.5039999999999 290.0V259.2H613.0319999999999Q616.7719999999999 259.2 619.2359999999999 260.476Q621.6999999999999 261.752 622.91 263.908Q624.12 266.064 624.12 268.836Q624.12 271.344 622.932 273.522Q621.7439999999999 275.7 619.3019999999999 277.06399999999996Q616.86 278.428 613.0319999999999 278.428H607.444V290.0ZM607.444 273.632H612.68Q615.54 273.632 616.794 272.312Q618.048 270.992 618.048 268.836Q618.048 266.548 616.794 265.294Q615.54 264.04 612.68 264.04H607.444ZM634.5199999999999 290.0V259.2H654.584V263.996H640.4599999999999V272.224H651.8119999999999V276.888H640.4599999999999V290.0ZM664.9839999999999 290.0V259.2H670.924V290.0ZM682.9959999999999 290.0V259.2H703.28V263.996H688.9359999999999V272.048H701.9599999999999V276.668H688.9359999999999V285.204H703.28V290.0ZM734.0519999999999 290.0V259.2H739.992V290.0ZM714.6479999999999 290.0V259.2H720.588V290.0ZM719.7959999999999 276.668V271.872H735.064V276.668ZM752.0639999999999 290.0V259.2H758.0039999999999V285.38H771.512V290.0ZM784.7279999999998 290.0V263.996H775.7519999999998V259.2H799.6439999999999V263.996H790.6239999999999V290.0Z" fill="#1F2A2B"/><path d="M321.15118138212824 470.0 303.7555516077456 390.27003020074613H325.01687688754663L335.5267365429028 453.57079410197196H336.8555693728904L350.0230946882217 390.27003020074613H374.5461005507195L387.95523183513944 453.57079410197196H389.284064665127L399.7939243204832 390.27003020074613H419.84721975484103L402.330786995914 470.0H375.27091845798543L362.5866050808314 406.82003908331853H361.37857523538815L348.8150648427785 470.0ZM457.41694794812577 471.6912417836205Q449.44395096820034 471.6912417836205 443.16219577189554 469.57718955409484Q436.8804405755907 467.4631373245692 432.47113163972284 463.35583585006214Q428.061822703855 459.24853437555515 425.7665659975129 453.20838514833895Q423.4713092911707 447.16823592112274 423.4713092911707 439.3160419257417Q423.4713092911707 431.70545389944925 425.70616450524074 425.3028957186001Q427.9410197193107 418.90033753775094 432.1087226860899 414.24942263279445Q436.276425652869 409.59850772783795 442.3769763723574 407.06164505240713Q448.4775270918458 404.52478237697636 456.0881151181382 404.52478237697636Q463.8195061289749 404.52478237697636 469.6784508793746 407.001243560135Q475.5373956297744 409.47770474329366 479.3426896429206 414.3098241250666Q483.1479836560668 419.1419435068396 484.9600284242316 426.08811511813826Q486.7720731923965 433.0342867294369 486.1680582696749 441.9737075857168L436.276425652869 442.3361165393498V432.18866583762656L475.0541836915971 431.8262568839936L468.1684135725706 436.53757328122225Q469.01403446438087 430.49742405400605 467.44359566530466 426.69213004085987Q465.87315686622844 422.8868360277136 462.8530822526203 421.1351927518209Q459.83300763901224 419.38354947592825 456.32972108722686 419.38354947592825Q452.1016166281755 419.38354947592825 448.90033753775094 421.67880618227036Q445.6990584473263 423.97406288861254 443.88701367916144 428.32297033220823Q442.0749689109966 432.67187777580386 442.0749689109966 438.9536329721087Q442.0749689109966 448.8594777047433 446.3634748623201 453.3291881328833Q450.6519808136436 457.7988985610233 457.2961449635814 457.7988985610233Q460.5578255462782 457.7988985610233 462.732279268076 456.89287617694083Q464.90673298987383 455.9868537928584 466.2959673121336 454.5976194705987Q467.6852016343933 453.20838514833895 468.4704210339314 451.51714336471844Q469.2556404334695 449.82590158109787 469.73885237164683 448.25546278202165L486.6512702078522 451.8795523183514Q485.68484633149757 456.3492627464914 483.5707941019719 459.9733522828211Q481.45674187244623 463.59744181915084 477.8930538283887 466.25510747912597Q474.3293657843311 468.9127731391011 469.3160419257417 470.3020074613608Q464.3027180671522 471.6912417836205 457.41694794812577 471.6912417836205ZM498.00675075501863 470.0V406.21602416059693H517.4560312666548V470.0ZM507.7917925031089 397.27660330431695Q502.23485521407 397.27660330431695 499.2751820927341 394.92094510570263Q496.3155089713981 392.5652869070883 496.3155089713981 388.2163794634927Q496.3155089713981 383.6258660508083 499.2751820927341 381.270207852194Q502.23485521407 378.9145496535797 507.7917925031089 378.9145496535797Q513.4695327766922 378.9145496535797 516.4292058980282 381.270207852194Q519.388879019364 383.6258660508083 519.388879019364 388.0955764789483Q519.388879019364 392.5652869070883 516.4292058980282 394.92094510570263Q513.4695327766922 397.27660330431695 507.7917925031089 397.27660330431695ZM557.4418191508262 471.5704387990762Q546.207141588204 471.5704387990762 540.8918102682537 465.59069106413216Q535.5764789483035 459.6109433291881 535.5764789483035 446.4434180138568V421.4372002131817H526.5162551074792L526.8786640611121 406.3368271451412H533.4020252265057Q537.267720731924 406.21602416059693 539.2609699769054 405.128797299698Q541.2542192218867 404.04157043879906 541.737431160064 401.021495825191L543.3078699591402 392.082074968911H554.3009415526737V406.21602416059693H569.6429205898029V422.04121513590337H554.3009415526737V445.59779712204653Q554.3009415526737 449.70509859655357 556.2941907976551 451.63794634926273Q558.2874400426364 453.57079410197196 562.3947415171434 453.57079410197196Q564.6899982234855 453.57079410197196 566.743648960739 453.08758216379465Q568.7972996979926 452.60437022561734 570.1261325279802 451.7587493338071V469.75839403091135Q566.2604370225617 470.9664238763546 563.0591579321372 471.2684313377154Q559.8578788417126 471.5704387990762 557.4418191508262 471.5704387990762ZM611.6823592112275 471.6912417836205Q603.7093622313022 471.6912417836205 597.4276070349973 469.57718955409484Q591.1458518386925 467.4631373245692 586.7365429028246 463.35583585006214Q582.3272339669568 459.24853437555515 580.0319772606147 453.20838514833895Q577.7367205542724 447.16823592112274 577.7367205542724 439.3160419257417Q577.7367205542724 431.70545389944925 579.9715757683425 425.3028957186001Q582.2064309824125 418.90033753775094 586.3741339491917 414.24942263279445Q590.5418369159709 409.59850772783795 596.6423876354593 407.06164505240713Q602.7429383549476 404.52478237697636 610.3535263812399 404.52478237697636Q618.0849173920767 404.52478237697636 623.9438621424764 407.001243560135Q629.8028068928761 409.47770474329366 633.6081009060224 414.3098241250666Q637.4133949191686 419.1419435068396 639.2254396873334 426.08811511813826Q641.0374844554983 433.0342867294369 640.4334695327766 441.9737075857168L590.5418369159709 442.3361165393498V432.18866583762656L629.3195949546988 431.8262568839936L622.4338248356723 436.53757328122225Q623.2794457274827 430.49742405400605 621.7090069284064 426.69213004085987Q620.1385681293302 422.8868360277136 617.1184935157221 421.1351927518209Q614.098418902114 419.38354947592825 610.5951323503286 419.38354947592825Q606.3670278912773 419.38354947592825 603.1657488008527 421.67880618227036Q599.9644697104281 423.97406288861254 598.1524249422632 428.32297033220823Q596.3403801740984 432.67187777580386 596.3403801740984 438.9536329721087Q596.3403801740984 448.8594777047433 600.6288861254219 453.3291881328833Q604.9173920767454 457.7988985610233 611.5615562266833 457.7988985610233Q614.82323680938 457.7988985610233 616.9976905311778 456.89287617694083Q619.1721442529756 455.9868537928584 620.5613785752353 454.5976194705987Q621.950612897495 453.20838514833895 622.7358322970331 451.51714336471844Q623.5210516965712 449.82590158109787 624.0042636347486 448.25546278202165L640.9166814709539 451.8795523183514Q639.9502575945994 456.3492627464914 637.8362053650737 459.9733522828211Q635.7221531355481 463.59744181915084 632.1584650914905 466.25510747912597Q628.5947770474329 468.9127731391011 623.5814531888434 470.3020074613608Q618.568129330254 471.6912417836205 611.6823592112275 471.6912417836205ZM652.2721620181205 470.0V440.40326878664064V406.21602416059693H668.2181559779714L668.5805649316043 427.8397583940309H670.9966246224908Q671.842245514301 419.38354947592825 674.1979037129154 414.3702256173388Q676.5535619115296 409.35690175874936 680.9628708473974 407.0616450524072Q685.3721797832653 404.766388346065 691.8955409486589 404.766388346065Q692.8619648250134 404.766388346065 694.0699946704567 404.82678983833716Q695.2780245158999 404.8871913306093 696.8484633149761 405.128797299698L696.1236454077102 425.9069106413217Q694.190797655001 424.94048676496715 691.955942440931 424.63847930360635Q689.721087226861 424.3364718422455 688.0298454432404 424.3364718422455Q683.3185290460118 424.3364718422455 679.8756439864985 426.14851661041035Q676.4327589269853 427.9605613785752 674.439509682004 431.70545389944925Q672.4462604370227 435.45034642032334 671.842245514301 441.12808669390654V470.0Z" fill="#1F2A2B"/><path d="M197.81133416237344 590.0781666370581Q189.83833718244804 590.0781666370581 183.5565819861432 587.9641144075324Q177.27482678983833 585.8500621780067 172.86551785397052 581.7427607034997Q168.45620891810267 577.6354592289928 166.1609522117605 571.5953100017766Q163.86569550541836 565.5551607745604 163.86569550541836 557.7029667791793Q163.86569550541836 550.0923787528868 166.10055071948835 543.6898205720377Q168.33540593355835 537.2872623911885 172.50310890033754 532.636347486232Q176.67081186711673 527.9854325812755 182.7713625866051 525.4485699058447Q188.87191330609346 522.9117072304139 196.48250133238585 522.9117072304139Q204.2138923432226 522.9117072304139 210.0728370936223 525.3881684135725Q215.93178184402203 527.8646295967312 219.73707585716824 532.6967489785042Q223.54236987031445 537.5288683602771 225.35441463847928 544.4750399715758Q227.16645940664415 551.4212115828744 226.56244448392255 560.3606324391544L176.67081186711673 560.7230413927873V550.5755906910641L215.44856990584475 550.2131817374311L208.56279978681826 554.9244981346598Q209.40842067862854 548.8843489074436 207.83798187955233 545.0790548942973Q206.26754308047612 541.2737608811511 203.247468466868 539.5221176052585Q200.2273938532599 537.7704743293658 196.7241073014745 537.7704743293658Q192.49600284242317 537.7704743293658 189.29472375199856 540.065731035708Q186.09344466157398 542.3609877420502 184.28139989340912 546.7098951856458Q182.46935512524428 551.0588026292414 182.46935512524428 557.3405578255463Q182.46935512524428 567.2464025581809 186.7578610765678 571.7161129863209Q191.04636702789128 576.1858234144609 197.6905311778291 576.1858234144609Q200.95221176052584 576.1858234144609 203.1266654823237 575.2798010303784Q205.3011192041215 574.3737786462959 206.69035352638124 572.9845443240363Q208.07958784864098 571.5953100017765 208.8648072481791 569.904068218156Q209.6500266477172 568.2128264345355 210.13323858589447 566.6423876354593L227.04565642209985 570.266477171789Q226.07923254574524 574.7361875999289 223.96518031621957 578.3602771362587Q221.8511280866939 581.9843666725884 218.28744004263635 584.6420323325635Q214.7237519985788 587.2996979925387 209.71042813998935 588.6889323147984Q204.6971042813999 590.0781666370581 197.81133416237344 590.0781666370581ZM238.4011369692663 588.3869248534376V547.1931071238231V524.6029490140345H253.74311600639547L253.9847219754841 543.3274116184047H256.40078166637056Q258.09202344999113 536.4416414993782 260.8704920945106 531.9115295789661Q263.64896073903003 527.3814176585539 267.6354592289927 525.1465624444838Q271.6219577189554 522.9117072304139 276.93728903890565 522.9117072304139Q282.4942263279446 522.9117072304139 286.1787173565465 525.2673654290282Q289.86320838514837 527.6230236276426 292.0376621069462 532.1531355480547Q294.212115828744 536.6832474684669 294.93693373600996 543.3274116184047H296.9905844732635Q298.92343222597265 536.2000355302896 302.0643098241251 531.6699236098775Q305.2051874222775 527.1398116894653 309.55409486587314 525.0257594599395Q313.90300230946883 522.9117072304139 318.9767276603304 522.9117072304139Q324.412861964825 522.9117072304139 328.45976194705986 525.0257594599395Q332.50666192929475 527.1398116894653 335.224729081542 531.3075146562444Q337.9427962337893 535.4752176230236 339.27162906377686 541.6965713270563Q340.6004618937644 547.917925031089 340.6004618937644 556.1325279801031V588.3869248534376H321.03037839758395V558.5485876709895Q321.03037839758395 552.1460294901403 320.0035530289572 547.917925031089Q318.9767276603304 543.6898205720377 316.8022739385326 541.575768342512Q314.6278202167348 539.4617161129863 311.2453366494937 539.4617161129863Q307.3796411440753 539.4617161129863 304.66157399182805 541.9985787884171Q301.9435068395808 544.535441463848 300.49387102504886 549.06555338426Q299.04423521051694 553.5956653046723 299.04423521051694 559.2734055782555V588.3869248534376H279.9573636525138V558.9109966246225Q279.9573636525138 552.2668324746846 278.8097352993427 548.0387280156333Q277.6621069461716 543.810623556582 275.4272517321016 541.6361698347841Q273.1923965180316 539.4617161129863 269.80991295079053 539.4617161129863Q265.9442174453722 539.4617161129863 263.286551785397 541.9985787884171Q260.6288861254219 544.535441463848 259.2396518031622 549.06555338426Q257.8504174809025 553.5956653046723 257.8504174809025 559.2734055782555V588.3869248534376ZM354.73441108545035 608.8026292414283V557.219754841002V524.6029490140345H370.68040504530114L370.9220110143898 542.723396695683L373.0964647361876 542.9650026647718Q374.1836915970865 536.2000355302896 376.962160241606 531.7303251021497Q379.7406288861255 527.2606146740096 384.14993782199326 525.0861609522117Q388.5592467578611 522.9117072304139 394.23698703144436 522.9117072304139Q402.69319594954703 522.9117072304139 408.7937466690354 527.0190087049209Q414.89429738852374 531.126310179428 418.1559779712205 538.7368982057203Q421.41765855391725 546.3474862320128 421.41765855391725 556.9781488719133Q421.41765855391725 566.4007816663706 418.5787884171256 573.8905667081187Q415.739918280334 581.3803517498668 410.0017765144786 585.7292591934624Q404.26363474862325 590.0781666370581 395.44501687688756 590.0781666370581Q389.5256706342157 590.0781666370581 385.41836915970873 587.9641144075324Q381.3110676852017 585.8500621780067 378.47219754841007 581.7427607034997Q375.63332741161844 577.6354592289928 373.7004796589093 571.4745070172322H371.4052229525671Q372.13004085983306 574.7361875999289 372.73405578255466 578.1186711671701Q373.33807070527627 581.5011547344111 373.76088115118137 584.6420323325635Q374.1836915970865 587.782909930716 374.1836915970865 590.6821815597797V608.8026292414283ZM388.31764078877245 574.7361875999289Q392.30413927873514 574.7361875999289 395.14300941552676 572.5617338781311Q397.9818795523184 570.3872801563333 399.5523183513946 566.4007816663707Q401.1227571504708 562.4142831764079 401.1227571504708 557.0989518564577Q401.1227571504708 551.4212115828744 399.4919168591224 547.3743116006395Q397.86107656777403 543.3274116184047 394.84100195416596 541.0925564043347Q391.8209273405579 538.8577011902647 387.83442885059515 538.8577011902647Q384.0895363297211 538.8577011902647 381.49227216201814 540.4885414816131Q378.89500799431516 542.1193817729614 377.2641677029668 544.7166459406644Q375.63332741161844 547.3139101083674 374.9085095043525 550.2131817374311Q374.1836915970865 553.112453366495 374.1836915970865 555.6493160419258V558.3069817019009Q374.1836915970865 560.602238408243 374.7877065198081 562.8974951145851Q375.3917214425298 565.1927518209274 376.59975128797305 567.306804050453Q377.80778113341626 569.4208562799787 379.49902291703677 571.1120980635992Q381.19026470065734 572.8033398472197 383.42511991472736 573.7697637235743Q385.6599751287973 574.7361875999289 388.31764078877245 574.7361875999289ZM437.8468644519453 588.3869248534376V548.8843489074436H428.06182270385506V534.7503997157577L445.4574524782377 535.4752176230236V533.1799609166815Q440.86693906555337 532.3343400248712 437.90726594421744 530.0994848108012Q434.9475928228815 527.8646295967312 433.61875999289396 524.8445549831231Q432.2899271629064 521.824480369515 432.2899271629064 518.3211938177296Q432.2899271629064 513.0058624977794 435.0683958074259 509.20056848463315Q437.8468644519453 505.3952744714869 442.9205898028069 503.3416237342334Q447.9943151536685 501.28797299697993 454.75928228815064 501.28797299697993Q460.67862853082255 501.28797299697993 465.5107479125955 502.67720731923964Q470.34286729436843 504.0664416414994 473.2421389234322 506.1200923787529L472.1549120625333 523.6365251376799Q469.1348374489252 521.5828744004264 465.329543435779 520.2540415704389Q461.5242494226328 518.9252087404512 458.2625688399361 518.9252087404512Q454.880085272695 518.9252087404512 452.5848285663528 520.6768520163439Q450.28957186001065 522.4284952922367 450.28957186001065 526.4149937821993Q450.28957186001065 529.5558713803517 451.67880618227036 531.126310179428Q453.06804050453013 532.6967489785042 455.12169124178365 533.2403624089536Q457.1753419790371 533.7839758394031 459.22899271629063 533.7839758394031H473.2421389234322V548.8843489074436H456.81293302540416V588.3869248534376ZM512.0198969621603 590.0781666370581Q502.3556581986143 590.0781666370581 494.9262746491384 586.333274116184Q487.4968910996625 582.58838159531 483.26878664061115 575.098596553562Q479.0406821815598 567.6088115118139 479.0406821815598 556.3741339491917Q479.0406821815598 545.1394563865696 483.26878664061115 537.7100728370937Q487.4968910996625 530.2806892876177 494.9866761414106 526.5961982590159Q502.4764611831587 522.9117072304139 512.1406999467046 522.9117072304139Q521.8049387102506 522.9117072304139 529.2947237519986 526.656599751288Q536.7845087937467 530.401492272162 541.012613252798 537.830875821638Q545.2407177118494 545.2602593711139 545.2407177118494 556.494936933736Q545.2407177118494 567.9712204654468 540.8918102682537 575.4610055071948Q536.5429028246581 582.950790548943 528.9927162906379 586.5144785930006Q521.4425297566175 590.0781666370581 512.0198969621603 590.0781666370581ZM512.6239118848819 575.9442174453721Q516.9728193284775 575.9442174453721 519.8720909575413 573.9509682003909Q522.771362586605 571.9577189554095 524.220998401137 567.8504174809025Q525.6706342156689 563.7431160063954 525.6706342156689 557.7029667791793Q525.6706342156689 551.30040859833 524.1001954165927 546.8910996624622Q522.5297566175165 542.4817907265945 519.4492805116362 540.1261325279802Q516.3688044057559 537.7704743293658 511.53668502398295 537.7704743293658Q507.429383549476 537.7704743293658 504.46971042814005 539.7637235743471Q501.51003730680407 541.7569728193284 500.06040149227215 545.8642742938355Q498.6107656777403 549.9715757683425 498.6107656777403 556.1325279801031Q498.6107656777403 566.0383727127377 502.2952567063422 570.9912950790549Q505.97974773494406 575.9442174453721 512.6239118848819 575.9442174453721ZM556.5961982590159 588.3869248534376V547.7971220465447V501.40877598152423H576.045478770652V521.3412684313378Q576.045478770652 523.7573281222242 575.8642742938355 526.3545922899272Q575.683069817019 528.9518564576301 575.260259371114 531.6699236098774Q574.8374489252088 534.3879907621247 574.4146384793037 537.1664594066442Q573.9918280333985 539.9449280511636 573.3878131106769 542.6025937111388H576.2870847397407Q577.9783265233613 536.6832474684669 580.5151891987921 532.273938532599Q583.0520518742228 527.8646295967312 587.1593533487298 525.3881684135725Q591.2666548232369 522.9117072304139 597.669213004086 522.9117072304139Q609.0246935512525 522.9117072304139 614.6420323325635 530.8243027180672Q620.2593711138746 538.7368982057204 620.2593711138746 555.1661041037485V588.3869248534376H600.6892876176942V558.4277846864452Q600.6892876176942 548.6427429383549 597.8504174809025 543.7502220643098Q595.0115473441109 538.8577011902647 589.2130040859834 538.8577011902647Q584.7432936578434 538.8577011902647 581.8440220287796 541.6361698347841Q578.9447503997159 544.4146384793036 577.495114585184 549.06555338426Q576.045478770652 553.7164682892166 576.045478770652 559.3942085627998V588.3869248534376ZM634.2725173210162 588.3869248534376V501.40877598152423H653.3593888790194V588.3869248534376ZM698.7813110676852 590.0781666370581Q690.8083140877599 590.0781666370581 684.526558891455 587.9641144075324Q678.2448036951502 585.8500621780067 673.8354947592823 581.7427607034997Q669.4261858234145 577.6354592289928 667.1309291170724 571.5953100017766Q664.8356724107301 565.5551607745604 664.8356724107301 557.7029667791793Q664.8356724107301 550.0923787528868 667.0705276248002 543.6898205720377Q669.3053828388702 537.2872623911885 673.4730858056494 532.636347486232Q677.6407887724286 527.9854325812755 683.741339491917 525.4485699058447Q689.8418902114053 522.9117072304139 697.4524782376976 522.9117072304139Q705.1838692485344 522.9117072304139 711.0428139989341 525.3881684135725Q716.9017587493338 527.8646295967312 720.7070527624801 532.6967489785042Q724.5123467756263 537.5288683602771 726.3243915437911 544.4750399715758Q728.136436311956 551.4212115828744 727.5324213892343 560.3606324391544L677.6407887724286 560.7230413927873V550.5755906910641L716.4185468111565 550.2131817374311L709.53277669213 554.9244981346598Q710.3783975839403 548.8843489074436 708.8079587848641 545.0790548942973Q707.2375199857879 541.2737608811511 704.2174453721798 539.5221176052585Q701.1973707585717 537.7704743293658 697.6940842067863 537.7704743293658Q693.465979747735 537.7704743293658 690.2647006573104 540.065731035708Q687.0634215668858 542.3609877420502 685.2513767987209 546.7098951856458Q683.4393320305561 551.0588026292414 683.4393320305561 557.3405578255463Q683.4393320305561 567.2464025581809 687.7278379818796 571.7161129863209Q692.0163439332031 576.1858234144609 698.6605080831409 576.1858234144609Q701.9221886658377 576.1858234144609 704.0966423876355 575.2798010303784Q706.2710961094333 574.3737786462959 707.660330431693 572.9845443240363Q709.0495647539527 571.5953100017765 709.8347841534908 569.904068218156Q710.6200035530289 568.2128264345355 711.1032154912062 566.6423876354593L728.0156333274116 570.266477171789Q727.0492094510571 574.7361875999289 724.9351572215314 578.3602771362587Q722.8211049920058 581.9843666725884 719.2574169479482 584.6420323325635Q715.6937289038906 587.2996979925387 710.6804050453011 588.6889323147984Q705.6670811867117 590.0781666370581 698.7813110676852 590.0781666370581ZM739.3711138745781 588.3869248534376V549.9715757683425V524.6029490140345H755.0755018653402L755.317107834429 543.3274116184047H757.7331675253154Q759.3036063243916 536.5624444839225 762.2028779534553 531.9719310712383Q765.1021495825191 527.3814176585539 769.5718600106591 525.1465624444838Q774.0415704387991 522.9117072304139 780.0817196660154 522.9117072304139Q791.3163972286375 522.9117072304139 797.1753419790372 530.7639012257949Q803.0342867294369 538.616095221176 803.0342867294369 555.7701190264701V588.3869248534376H783.4642032332564V557.9445727482679Q783.4642032332564 548.0387280156333 780.6253330964648 543.5086160952212Q777.7864629596731 538.978504174809 772.2295256706343 538.978504174809Q767.63901225795 538.978504174809 764.6793391366141 541.7569728193284Q761.7196660152781 544.535441463848 760.2700302007462 549.1259548765322Q758.8203943862143 553.7164682892166 758.8203943862143 559.3942085627998V588.3869248534376ZM824.658020962871 589.9573636525138Q818.3762657665661 589.9573636525138 815.2957896606858 587.2996979925387Q812.2153135548056 584.6420323325635 812.2153135548056 579.0850950435246Q812.2153135548056 573.4073547699414 815.2957896606858 570.7496891099663Q818.3762657665661 568.0920234499911 824.658020962871 568.0920234499911Q831.0605791437201 568.0920234499911 834.2014567418726 570.7496891099663Q837.342334340025 573.4073547699414 837.342334340025 579.0850950435246Q837.342334340025 589.9573636525138 824.658020962871 589.9573636525138Z" fill="#1F2A2B"/><path d="M435.596 760.0V755.644Q438.368 753.4 441.03 751.156Q443.69199999999995 748.912 445.82599999999996 746.69Q447.96 744.468 449.192 742.356Q450.424 740.244 450.424 738.264Q450.424 737.032 449.962 735.998Q449.5 734.964 448.554 734.326Q447.60799999999995 733.688 446.068 733.688Q444.52799999999996 733.688 443.472 734.392Q442.416 735.096 441.888 736.262Q441.35999999999996 737.428 441.35999999999996 738.88H435.64Q435.72799999999995 735.492 437.13599999999997 733.204Q438.544 730.916 440.91999999999996 729.7940000000001Q443.296 728.672 446.24399999999997 728.672Q449.5 728.672 451.744 729.8820000000001Q453.988 731.092 455.176 733.16Q456.364 735.228 456.364 737.912Q456.364 739.936 455.59399999999994 741.8720000000001Q454.82399999999996 743.808 453.548 745.634Q452.272 747.46 450.644 749.1320000000001Q449.01599999999996 750.804 447.256 752.322Q445.496 753.84 443.82399999999996 755.16H457.11199999999997V760.0ZM480.09599999999995 760.528Q475.87199999999996 760.528 472.83599999999996 758.504Q469.79999999999995 756.48 468.19399999999996 752.894Q466.58799999999997 749.308 466.58799999999997 744.6Q466.58799999999997 739.892 468.19399999999996 736.306Q469.79999999999995 732.72 472.83599999999996 730.696Q475.87199999999996 728.672 480.09599999999995 728.672Q484.27599999999995 728.672 487.28999999999996 730.696Q490.304 732.72 491.90999999999997 736.306Q493.51599999999996 739.892 493.51599999999996 744.6Q493.51599999999996 749.308 491.90999999999997 752.894Q490.304 756.48 487.28999999999996 758.504Q484.27599999999995 760.528 480.09599999999995 760.528ZM480.05199999999996 755.204Q482.25199999999995 755.204 483.924 753.906Q485.59599999999995 752.608 486.5419999999999 750.232Q487.48799999999994 747.856 487.48799999999994 744.6Q487.48799999999994 741.3 486.5419999999999 738.9459999999999Q485.59599999999995 736.592 483.924 735.316Q482.25199999999995 734.04 480.05199999999996 734.04Q477.89599999999996 734.04 476.202 735.316Q474.508 736.592 473.58399999999995 738.9459999999999Q472.65999999999997 741.3 472.65999999999997 744.6Q472.65999999999997 747.856 473.58399999999995 750.232Q474.508 752.608 476.202 753.906Q477.89599999999996 755.204 480.05199999999996 755.204ZM503.60799999999995 760.0V755.644Q506.38 753.4 509.042 751.156Q511.70399999999995 748.912 513.838 746.69Q515.972 744.468 517.204 742.356Q518.4359999999999 740.244 518.4359999999999 738.264Q518.4359999999999 737.032 517.9739999999999 735.998Q517.512 734.964 516.566 734.326Q515.62 733.688 514.0799999999999 733.688Q512.54 733.688 511.484 734.392Q510.428 735.096 509.9 736.262Q509.37199999999996 737.428 509.37199999999996 738.88H503.652Q503.73999999999995 735.492 505.14799999999997 733.204Q506.556 730.916 508.932 729.7940000000001Q511.308 728.672 514.256 728.672Q517.512 728.672 519.756 729.8820000000001Q522.0 731.092 523.188 733.16Q524.376 735.228 524.376 737.912Q524.376 739.936 523.606 741.8720000000001Q522.836 743.808 521.56 745.634Q520.284 747.46 518.656 749.1320000000001Q517.028 750.804 515.268 752.322Q513.5079999999999 753.84 511.83599999999996 755.16H525.124V760.0ZM547.3599999999999 760.528Q543.8839999999999 760.528 541.4859999999999 759.23Q539.088 757.932 537.6579999999999 755.798Q536.228 753.664 535.5899999999999 751.002Q534.952 748.34 534.952 745.612Q534.952 740.42 536.404 736.636Q537.856 732.852 540.584 730.762Q543.3119999999999 728.672 547.184 728.672Q550.4399999999999 728.672 552.684 729.904Q554.928 731.136 556.16 733.16Q557.3919999999999 735.184 557.612 737.56H552.112Q551.7159999999999 735.624 550.4399999999999 734.59Q549.164 733.556 547.14 733.556Q545.2479999999999 733.556 543.8399999999999 734.7Q542.4319999999999 735.844 541.6619999999999 738.154Q540.8919999999999 740.464 540.76 743.896Q540.76 743.94 540.76 744.028Q540.76 744.116 540.76 744.16Q541.4639999999999 742.972 542.608 742.048Q543.752 741.124 545.2479999999999 740.596Q546.7439999999999 740.068 548.4159999999999 740.068Q550.968 740.068 553.1679999999999 741.3Q555.3679999999999 742.532 556.732 744.7760000000001Q558.096 747.02 558.096 750.1Q558.096 752.872 556.7539999999999 755.27Q555.4119999999999 757.668 552.992 759.098Q550.572 760.528 547.3599999999999 760.528ZM547.0519999999999 755.424Q548.592 755.424 549.824 754.764Q551.0559999999999 754.104 551.7379999999999 752.9380000000001Q552.42 751.772 552.42 750.276Q552.42 748.692 551.7379999999999 747.548Q551.0559999999999 746.404 549.8019999999999 745.7439999999999Q548.548 745.084 547.0079999999999 745.084Q545.424 745.084 544.192 745.7439999999999Q542.9599999999999 746.404 542.2559999999999 747.548Q541.5519999999999 748.692 541.5519999999999 750.232Q541.5519999999999 751.728 542.2559999999999 752.9159999999999Q542.9599999999999 754.104 544.2139999999999 754.764Q545.468 755.424 547.0519999999999 755.424Z" fill="#1F2A2B"/><path d="M440.0 840H552.0M520.0 808L556.0 840L520.0 872" fill="none" stroke="#1F2A2B" stroke-width="14" stroke-linecap="round" stroke-linejoin="round"/></svg>
